<?xml version="1.0" encoding="UTF-8"?>
<svg width="38px" height="23px" viewBox="0 0 38 23" version="1.1" xmlns="http://www.w3.org/2000/svg" xmlns:xlink="http://www.w3.org/1999/xlink">
    <title>Tailwind_CSS_Logo Copy</title>
    <g id="Page-1" stroke="none" stroke-width="1" fill="none" fill-rule="evenodd">
        <g id="Tailwind_CSS_Logo-Copy" fill="#07B6D5" fill-rule="nonzero">
            <path d="M18.2741117,0.00784298231 C11.4815083,0.230427106 9.4626541,5.23312779 9,7.94333775 C9.60283829,6.9387388 11.5025381,4.73449252 14.2994924,4.73449252 C17.5591008,4.73449252 20.0406091,8.48542311 21.5547498,9.65623381 C23.3943046,11.0786821 27.0907426,12.9568359 31.9434373,11.4341315 C35.8129079,10.2199575 37.607459,5.9847449 38,3.97559037 C36.1283539,6.59907361 33.2893401,8.17485473 29.7773749,6.31721177 C27.3589558,5.03799267 25.5503988,-0.230612131 18.2741117,0.00784298231 Z" id="Path"></path>
            <path d="M9.27411168,11.007843 C2.48150834,11.2304271 0.462654097,16.2331278 0,18.9433378 C0.602850906,17.9387388 2.50253807,15.7344925 5.29949239,15.7344925 C8.5591008,15.7344925 11.0406091,19.4854231 12.5547498,20.6562338 C14.3943046,22.0786821 18.0907426,23.9568359 22.9434373,22.4341315 C26.8129079,21.2199575 28.607459,16.9847449 29,14.9755904 C27.1283539,17.5990736 24.2893401,19.1748547 20.7773749,17.3172118 C18.3589558,16.0379927 16.5503988,10.7693879 9.27411168,11.007843 Z" id="Path"></path>
        </g>
    </g>
</svg>