<svg width="21" height="21" viewBox="0 0 21 21" fill="none" xmlns="http://www.w3.org/2000/svg">
<path d="M6.87469 4.13398L9.16635 5.41732L7.88302 3.12565L9.16635 0.833984L6.87469 2.11732L4.58302 0.833984L5.86635 3.12565L4.58302 5.41732L6.87469 4.13398ZM17.8747 13.1173L15.583 11.834L16.8664 14.1257L15.583 16.4173L17.8747 15.134L20.1664 16.4173L18.883 14.1257L20.1664 11.834L17.8747 13.1173ZM20.1664 0.833984L17.8747 2.11732L15.583 0.833984L16.8664 3.12565L15.583 5.41732L17.8747 4.13398L20.1664 5.41732L18.883 3.12565L20.1664 0.833984ZM13.1722 5.68315C12.8147 5.32565 12.2372 5.32565 11.8797 5.68315L1.18219 16.3807C0.824688 16.7382 0.824688 17.3157 1.18219 17.6732L3.32719 19.8182C3.68469 20.1757 4.26219 20.1757 4.61969 19.8182L15.308 9.12982C15.6655 8.77232 15.6655 8.19482 15.308 7.83732L13.1722 5.68315ZM12.228 10.7157L10.2847 8.77232L12.5214 6.53565L14.4647 8.47898L12.228 10.7157Z" fill="#FDFDFD"/>
</svg>
