<?xml version="1.0" encoding="UTF-8"?>
<svg width="20px" height="20px" viewBox="0 0 20 20" version="1.1" xmlns="http://www.w3.org/2000/svg" xmlns:xlink="http://www.w3.org/1999/xlink">
    <title>magic-icon copy</title>
    <g id="Page-1" stroke="none" stroke-width="1" fill="none" fill-rule="evenodd">
        <g id="magic-icon-copy" fill="#000000" fill-rule="nonzero">
            <path d="M5.9606265,3.299996 L8.2522865,4.583336 L6.9689565,2.291666 L8.2522865,7.77156117e-16 L5.9606265,1.283336 L3.6689565,7.77156117e-16 L4.9522865,2.291666 L3.6689565,4.583336 L5.9606265,3.299996 Z M16.9606365,12.283316 L14.6689365,11.000016 L15.9523365,13.291716 L14.6689365,15.583316 L16.9606365,14.300016 L19.2523365,15.583316 L17.9689365,13.291716 L19.2523365,11.000016 L16.9606365,12.283316 Z M19.2523365,7.77156117e-16 L16.9606365,1.283336 L14.6689365,7.77156117e-16 L15.9523365,2.291666 L14.6689365,4.583336 L16.9606365,3.299996 L19.2523365,4.583336 L17.9689365,2.291666 L19.2523365,7.77156117e-16 Z M12.2581365,4.849166 C11.9006365,4.491666 11.3231365,4.491666 10.9656365,4.849166 L0.2681265,15.546716 C-0.0893755,15.904216 -0.0893755,16.481716 0.2681265,16.839216 L2.4131265,18.984216 C2.7706265,19.341716 3.3481265,19.341716 3.7056265,18.984216 L14.3939365,8.295836 C14.7514365,7.938336 14.7514365,7.360836 14.3939365,7.003336 L12.2581365,4.849166 Z M11.3139365,9.881716 L9.3706365,7.938336 L11.6073365,5.701666 L13.5506365,7.644996 L11.3139365,9.881716 Z" id="Shape"></path>
        </g>
    </g>
</svg>