<?xml version="1.0" encoding="UTF-8"?>
<svg width="23px" height="23px" viewBox="0 0 23 23" version="1.1" xmlns="http://www.w3.org/2000/svg" xmlns:xlink="http://www.w3.org/1999/xlink">
    <title>mantine-logo</title>
    <g id="Page-1" stroke="none" stroke-width="1" fill="none" fill-rule="evenodd">
        <g id="mantine-logo">
            <path d="M23,11.5 C23,5.1487546 17.851303,0 11.5001418,0 C5.14869698,0 0,5.1487546 0,11.5 C0,17.8511043 5.14869698,23 11.5,23 C17.851303,23 23,17.8511043 23,11.5 Z" id="Path" fill="#339AF0" fill-rule="nonzero"></path>
            <path d="M9.51203876,6.10389916 C9.30603512,6.38911995 9.28768058,6.77232238 9.46544707,7.07663083 C9.52314008,7.17503023 9.59939568,7.26080465 9.68980821,7.32899846 C10.9993673,8.32320823 11.7512128,9.84334875 11.7512128,11.5002708 C11.7512128,13.1571929 10.9993673,14.6773334 9.68980821,15.6715432 C9.59950803,15.7397791 9.52335078,15.8255489 9.46572441,15.9239108 C9.34878926,16.1232679 9.31418312,16.3617344 9.3694904,16.5870471 C9.39670679,16.6985257 9.44513907,16.8034739 9.51203876,16.895936 C9.71744556,17.1803852 10.0713354,17.3099005 10.4074033,17.2236183 C10.5165055,17.1956238 10.6190983,17.1459209 10.7092786,17.0773694 C11.112636,16.7709927 11.48213,16.4208608 11.8112551,16.0331383 L14.2369345,16.0331383 C14.70923,16.0331383 15.0930567,15.6414456 15.0930567,15.1579058 C15.0930567,14.6743661 14.710062,14.2826734 14.2369345,14.2826734 L12.898117,14.2826734 C13.2723627,13.4047826 13.4645504,12.4575574 13.4626251,11.5004121 C13.4646244,10.5431825 13.2724836,9.59585914 12.8982556,8.71786825 L14.2377665,8.71786825 C14.710062,8.71786825 15.09375,8.32631691 15.09375,7.84263583 C15.09375,7.35909606 14.7107553,6.96754471 14.2377665,6.96754471 L11.8126417,6.96754471 C11.4833292,6.57946018 11.1136019,6.22899578 10.7099719,5.92232447 C10.5280639,5.78412159 10.2996076,5.72548892 10.0751602,5.7594018 C9.85035269,5.79381282 9.64812755,5.9177099 9.51287075,6.10389916 L9.51203876,6.10389916 L9.51203876,6.10389916 Z" id="Path" fill="#FFFFFF" fill-rule="nonzero"></path>
            <path d="M7.90661746,11.3507823 C7.90256259,11.1831581 7.93210065,11.0163982 7.99352858,10.8601172 C8.05471779,10.7042621 8.14667066,10.5620133 8.26402567,10.4416648 C8.38089133,10.3218309 8.5209019,10.2264265 8.67575333,10.1611099 C8.98777667,10.02963 9.34051741,10.02963 9.65254075,10.1611099 C9.80743769,10.2264172 9.94749506,10.3218216 10.0644059,10.4416648 C10.1817609,10.5620133 10.2737138,10.7042621 10.334903,10.8601172 C10.5194992,11.3307038 10.404782,11.8647271 10.0426781,12.2204617 C9.80882949,12.4493108 9.49321024,12.5778142 9.1642158,12.578125 C8.83512608,12.5778858 8.51939481,12.449377 8.28547841,12.2204617 C8.05007366,11.9900242 7.91425675,11.678255 7.90661746,11.3507823 L7.90661746,11.3507823 Z" id="Path" fill="#FFFFFF"></path>
        </g>
    </g>
</svg>