<?xml version="1.0" encoding="UTF-8"?>
<svg width="20px" height="16px" viewBox="0 0 20 16" version="1.1" xmlns="http://www.w3.org/2000/svg" xmlns:xlink="http://www.w3.org/1999/xlink">
    <title>prompt-icon</title>
    <g id="Page-1" stroke="none" stroke-width="1" fill="none" fill-rule="evenodd">
        <g id="prompt-icon" fill="#FDFDFD" fill-rule="nonzero">
            <path d="M18,0 L2,0 C0.89,0 0,0.9 0,2 L0,14 C0,15.1 0.89,16 2,16 L18,16 C19.1,16 20,15.1 20,14 L20,2 C20,0.9 19.11,0 18,0 Z M18,14 L2,14 L2,4 L18,4 L18,14 Z M16,13 L10,13 L10,11 L16,11 L16,13 Z M5.5,13 L4.09,11.59 L6.67,9 L4.08,6.41 L5.5,5 L9.5,9 L5.5,13 Z" id="Shape"></path>
        </g>
    </g>
</svg>