<?xml version="1.0" encoding="UTF-8"?>
<svg width="17px" height="17px" viewBox="0 0 17 17" version="1.1" xmlns="http://www.w3.org/2000/svg" xmlns:xlink="http://www.w3.org/1999/xlink">
    <title>share-link-dark</title>
    <g id="Page-1" stroke="none" stroke-width="1" fill="none" fill-rule="evenodd">
        <g id="share-link-dark" transform="translate(0.000001, 0.666020)" fill="#FDFDFD">
            <path d="M11.5720992,0.242769543 C10.4617992,0.233119543 9.39209921,0.659959543 8.59339921,1.43133954 L8.58659921,1.43807954 L7.35875921,2.65875954 C7.09811921,2.91787954 7.09688921,3.33921954 7.35600921,3.59984954 C7.61512921,3.86048954 8.03649921,3.86171954 8.29709921,3.60259954 L9.52129921,2.38547954 C10.0685992,1.85853954 10.8006992,1.56703954 11.5605992,1.57363954 C12.3218992,1.58025954 13.0501992,1.88563954 13.5885992,2.42402954 C14.1269992,2.96240954 14.4323992,3.69070954 14.4389992,4.45207954 C14.4455992,5.21160954 14.1542992,5.94341954 13.6277992,6.49064954 L11.4904992,8.62798954 C11.1960992,8.92248954 10.8417992,9.15018954 10.4516992,9.29568954 C10.0615992,9.44128954 9.64469921,9.50118954 9.22939921,9.47138954 C8.81409921,9.44168954 8.40999921,9.32298954 8.04459921,9.12328954 C7.67917921,8.92368954 7.36097921,8.64778954 7.11157921,8.31438954 C6.89143921,8.02008954 6.47439921,7.95998954 6.18009921,8.18008954 C5.88580921,8.40018954 5.82568921,8.81728954 6.04581921,9.11158954 C6.40953921,9.59778954 6.87358921,10.0001895 7.40646921,10.2912895 C7.93935921,10.5823895 8.52859921,10.7555895 9.13429921,10.7989895 C9.73999921,10.8422895 10.3478992,10.7548895 10.9168992,10.5426895 C11.4857992,10.3304895 12.0024992,9.99828954 12.4316992,9.56888954 L14.5731992,7.42744954 L14.5812992,7.41919954 C15.3526992,6.62052954 15.7794992,5.55083954 15.7698992,4.44050954 C15.7601992,3.33018954 15.3148992,2.26806954 14.5296992,1.48292954 C13.7445992,0.697779543 12.6824992,0.252419543 11.5720992,0.242769543 Z M6.87833921,5.20104954 C6.27265921,5.15766954 5.66472921,5.24505954 5.09578921,5.45728954 C4.52688921,5.66950954 4.01027921,6.00157954 3.58098921,6.43099954 L1.43944921,8.57258954 L1.43134921,8.58078954 C0.659959214,9.37948954 0.233129214,10.4491895 0.242779214,11.5594895 C0.252419214,12.6697895 0.697779214,13.7318895 1.48292921,14.5170895 C2.26807921,15.3021895 3.33018921,15.7475895 4.44050921,15.7571895 C5.55083921,15.7668895 6.62052921,15.3399895 7.41919921,14.5686895 L7.42744921,14.5605895 L8.64809921,13.3398895 C8.90799921,13.0799895 8.90799921,12.6586895 8.64809921,12.3987895 C8.38829921,12.1388895 7.96690921,12.1388895 7.70702921,12.3987895 L6.49064921,13.6151895 C5.94341921,14.1416895 5.21160921,14.4329895 4.45207921,14.4263895 C3.69071921,14.4196895 2.96240921,14.1143895 2.42402921,13.5759895 C1.88564921,13.0375895 1.58025921,12.3092895 1.57363921,11.5478895 C1.56703921,10.7883895 1.85830921,10.0565895 2.38485921,9.50928954 L4.52208921,7.37209954 C4.81646921,7.07761954 5.17081921,6.84979954 5.56094921,6.70426954 C5.95107921,6.55873954 6.36793921,6.49881954 6.78325921,6.52855954 C7.19858921,6.55830954 7.60265921,6.67702954 7.96805921,6.87665954 C8.33349921,7.07629954 8.65169921,7.35218954 8.90109921,7.68558954 C9.12119921,7.97988954 9.53819921,8.04008954 9.83249921,7.81988954 C10.1267992,7.59978954 10.1869992,7.18272954 9.96679921,6.88842954 C9.60309921,6.40217954 9.13909921,5.99983954 8.60619921,5.70869954 C8.07329921,5.41754954 7.48401921,5.24441954 6.87833921,5.20104954 Z" id="Shape"></path>
            <path d="M8.76259921,1.60524954 L8.76199921,1.60584954 L8.75759921,1.61012954 L8.75639921,1.61136954 L7.52980921,2.83080954 C7.36419921,2.99545954 7.36341921,3.26318954 7.52806921,3.42879954 C7.69271921,3.59440954 7.96043921,3.59518954 8.12609921,3.43053954 L9.35299921,2.21067954 C9.94609921,1.63970954 10.7393992,1.32387954 11.5626992,1.33102954 C12.3876992,1.33819954 13.1767992,1.66909954 13.7601992,2.25246954 C14.3434992,2.83583954 14.6743992,3.62498954 14.6815992,4.44996954 C14.6887992,5.27295954 14.3731992,6.06590954 13.8025992,6.65886954 L13.7993992,6.66223954 L11.6620992,8.79948954 C11.3430992,9.11858954 10.9591992,9.36538954 10.5364992,9.52298954 C10.1137992,9.68068954 9.66209921,9.74568954 9.21209921,9.71338954 C8.76199921,9.68118954 8.32419921,9.55258954 7.92826921,9.33618954 C7.53232921,9.11988954 7.18753921,8.82098954 6.91729921,8.45968954 C6.77741921,8.27268954 6.51242921,8.23448954 6.32542921,8.37438954 C6.13841921,8.51428954 6.10021921,8.77918954 6.24009921,8.96618954 C6.58297921,9.42458954 7.02043921,9.80388954 7.52279921,10.0783895 C8.02519921,10.3528895 8.58069921,10.5160895 9.15159921,10.5569895 C9.72259921,10.5978895 10.2956992,10.5154895 10.8320992,10.3153895 C11.3683992,10.1152895 11.8554992,9.80218954 12.2601992,9.39738954 L14.4001992,7.25738954 L14.4015992,7.25589954 L14.4067992,7.25064954 L14.4074992,7.24990954 C15.1342992,6.49706954 15.5363992,5.48897954 15.5272992,4.44261954 C15.5181992,3.39590954 15.0982992,2.39464954 14.3581992,1.65447954 C13.6179992,0.914319543 12.6166992,0.494469543 11.5699992,0.485379543 C10.5235992,0.476289543 9.51549921,0.878439543 8.76259921,1.60524954 Z M8.42489921,1.25682954 C9.26929921,0.441249543 10.4002992,-0.0100404574 11.5741992,0.000169542588 C12.7481992,0.0103695426 13.8710992,0.481239543 14.7012992,1.31136954 C15.5313992,2.14149954 16.0022992,3.26446954 16.0124992,4.43839954 C16.0226992,5.61233954 15.5713992,6.74331954 14.7557992,7.58778954 L14.7543992,7.58928954 L14.7447992,7.59898954 L12.6032992,9.74038954 C12.1494992,10.1943895 11.6030992,10.5456895 11.0016992,10.7699895 C10.4000992,10.9943895 9.75739921,11.0867895 9.11699921,11.0409895 C8.47659921,10.9950895 7.85356921,10.8119895 7.29014921,10.5041895 C6.72672921,10.1963895 6.23609921,9.77098954 5.85154921,9.25688954 C5.55114921,8.85528954 5.63318921,8.28618954 6.03477921,7.98578954 C6.43637921,7.68538954 7.00545921,7.76748954 7.30584921,8.16908954 C7.53441921,8.47458954 7.82603921,8.72748954 8.16089921,8.91038954 C8.49579921,9.09338954 8.86609921,9.20218954 9.24669921,9.22938954 C9.62729921,9.25668954 10.0093992,9.20178954 10.3668992,9.06838954 C10.7243992,8.93498954 11.0490992,8.72628954 11.3188992,8.45648954 L13.4545992,6.32076954 C13.9360992,5.81943954 14.2023992,5.14948954 14.1963992,4.45417954 C14.1902992,3.75643954 13.9104992,3.08897954 13.4170992,2.59557954 C12.9236992,2.10217954 12.2561992,1.82230954 11.5584992,1.81624954 C10.8626992,1.81019954 10.1923992,2.07685954 9.69099921,2.55894954 L8.46819921,3.77464954 C8.11249921,4.12823954 7.53754921,4.12656954 7.18395921,3.77090954 C6.83036921,3.41524954 6.83203921,2.84028954 7.18769921,2.48669954 L8.41549921,1.26601954 L8.41679921,1.26478954 L8.42359921,1.25804954 L8.42489921,1.25682954 Z M6.86100921,5.44303954 C6.29002921,5.40214954 5.71692921,5.48452954 5.18058921,5.68460954 C4.64436921,5.88462954 4.15742921,6.19760954 3.75277921,6.60231954 M5.01098921,5.22996954 C5.61252921,5.00557954 6.25528921,4.91318954 6.89566921,4.95904954 C7.53604921,5.00490954 8.15909921,5.18795954 8.72249921,5.49578954 C9.28589921,5.80360954 9.77649921,6.22899954 10.1610992,6.74310954 C10.4614992,7.14470954 10.3794992,7.71378954 9.97789921,8.01418954 C9.57629921,8.31458954 9.00719921,8.23258954 8.70679921,7.83098954 C8.47819921,7.52536954 8.18659921,7.27252954 7.85173921,7.08957954 C7.51685921,6.90661954 7.14654921,6.79781954 6.76592921,6.77055954 C6.38530921,6.74329954 6.00327921,6.79821954 5.64574921,6.93158954 C5.28820921,7.06495954 4.96354921,7.27365954 4.69376921,7.54353954 L2.55809921,9.67918954 C2.07654921,10.1805895 1.81020921,10.8504895 1.81624921,11.5457895 C1.82230921,12.2435895 2.10217921,12.9109895 2.59558921,13.4043895 C3.08898921,13.8977895 3.75643921,14.1776895 4.45418921,14.1837895 C5.14948921,14.1897895 5.81943921,13.9234895 6.32076921,13.4418895 L7.53547921,12.2271895 C7.89009921,11.8725895 8.46509921,11.8725895 8.81969921,12.2271895 C9.17429921,12.5817895 9.17429921,13.1567895 8.81969921,13.5113895 L7.59751921,14.7335895 L7.58775921,14.7431895 C6.74332921,15.5587895 5.61233921,16.0099895 4.43840921,15.9997895 C3.26446921,15.9895895 2.14149921,15.5187895 1.31136921,14.6885895 C0.481239214,13.8584895 0.0103692142,12.7354895 0.000169214184,11.5615895 C-0.0100307858,10.3876895 0.441259214,9.25668954 1.25682921,8.41228954 L1.25829921,8.41068954 L1.26788921,8.40098954 L3.40911921,6.25975954 C3.86299921,5.80573954 4.40949921,5.45434954 5.01098921,5.22996954 Z M6.86100921,5.44303954 C7.43198921,5.48392954 7.98749921,5.64714954 8.48989921,5.92160954 L6.86100921,5.44303954 Z M3.75277921,6.60231954 L1.61248921,8.74258954 L1.61100921,8.74408954 L1.60585921,8.74928954 L1.60512921,8.75008954 C0.878399214,9.50288954 0.476289214,10.5109895 0.485379214,11.5573895 C0.494479214,12.6040895 0.914319214,13.6053895 1.65448921,14.3454895 C2.39464921,15.0856895 3.39590921,15.5054895 4.44261921,15.5145895 C5.48898921,15.5236895 6.49706921,15.1215895 7.24990921,14.3948895 L7.25065921,14.3941895 L7.25589921,14.3889895 L7.25738921,14.3874895 L8.47659921,13.1682895 C8.64169921,13.0031895 8.64169921,12.7354895 8.47659921,12.5702895 C8.31139921,12.4051895 8.04369921,12.4051895 7.87858921,12.5702895 L6.65889921,13.7899895 C6.06593921,14.3605895 5.27295921,14.6760895 4.44996921,14.6689895 C3.62499921,14.6617895 2.83583921,14.3308895 2.25246921,13.7474895 C1.66910921,13.1641895 1.33819921,12.3749895 1.33103921,11.5499895 C1.32387921,10.7269895 1.63948921,9.93408954 2.21002921,9.34108954 L2.21326921,9.33778954 L4.35053921,7.20053954" id="Shape"></path>
        </g>
    </g>
</svg>