<svg width="20" height="21" viewBox="0 0 20 21" fill="none" xmlns="http://www.w3.org/2000/svg">
<path fill-rule="evenodd" clip-rule="evenodd" d="M1.33301 10.4416C1.33301 14.7265 4.46246 18.2893 8.55482 19.0114L8.60214 18.9736C8.58639 18.9705 8.57064 18.9674 8.55489 18.9643V12.8498H6.38835V10.4426H8.55489V8.51674C8.55489 6.3502 9.95111 5.14657 11.9251 5.14657C12.551 5.14657 13.225 5.24286 13.8509 5.33915V7.55384H12.7435C11.6843 7.55384 11.4436 8.08344 11.4436 8.75747V10.4426H13.7546L13.3694 12.8498H11.4436V18.9643C11.4278 18.9675 11.412 18.9706 11.3963 18.9736L11.4435 19.0114C15.5359 18.2893 18.6654 14.7265 18.6654 10.4416C18.6654 5.67517 14.7656 1.77539 9.99918 1.77539C5.23279 1.77539 1.33301 5.67517 1.33301 10.4416Z" fill="#202123"/>
</svg>
