<?xml version="1.0" encoding="UTF-8"?>
<svg width="20px" height="17px" viewBox="0 0 20 17" version="1.1" xmlns="http://www.w3.org/2000/svg" xmlns:xlink="http://www.w3.org/1999/xlink">
    <title>share-twitter-dark</title>
    <g id="Page-1" stroke="none" stroke-width="1" fill="none" fill-rule="evenodd">
        <g id="share-twitter-dark" transform="translate(0.000000, 0.666020)" fill="#FDFDFD" fill-rule="nonzero">
            <path d="M19.6923,1.89353 C18.9678,2.21538 18.1898,2.43261 17.3717,2.52923 C18.2058,2.02953 18.8466,1.23815 19.1488,0.29538 C18.3677,0.75753 17.5035,1.09477 16.5832,1.27507 C15.8458,0.49046 14.7957,0 13.6329,0 C11.4016,0 9.59378,1.808 9.59378,4.03877 C9.59378,4.35507 9.62887,4.664 9.69781,4.95938 C6.34005,4.79077 3.3633,3.18277 1.37019,0.73907 C1.02303,1.336 0.823591,2.02953 0.823591,2.76984 C0.823591,4.17169 1.537,5.40738 2.62035,6.1323 C1.95864,6.11077 1.33572,5.92984 0.790967,5.62707 C0.790352,5.64369 0.790352,5.66153 0.790352,5.67753 C0.790352,7.63509 2.1827,9.26769 4.03116,9.63879 C3.69262,9.73049 3.3356,9.78029 2.9669,9.78029 C2.70591,9.78029 2.45354,9.75509 2.20732,9.70829 C2.72068,11.31199 4.21336,12.47999 5.98057,12.51319 C4.59869,13.59629 2.85671,14.24309 0.963933,14.24309 C0.637698,14.24309 0.315771,14.22399 0,14.18649 C1.78752,15.33109 3.91113,16 6.19293,16 C13.6237,16 17.6881,9.84549 17.6881,4.50769 C17.6881,4.33292 17.6832,4.15815 17.6758,3.98461 C18.4655,3.41538 19.15,2.70461 19.6923,1.89353 Z" id="Path"></path>
        </g>
    </g>
</svg>