<svg width="20" height="21" viewBox="0 0 20 21" fill="none" xmlns="http://www.w3.org/2000/svg">
<path fill-rule="evenodd" clip-rule="evenodd" d="M13.5721 2.68418C12.4618 2.67453 11.3921 3.10137 10.5934 3.87275L10.5866 3.87949L9.35876 5.10017C9.09812 5.35929 9.09689 5.78063 9.35601 6.04126C9.61513 6.3019 10.0365 6.30313 10.2971 6.04401L11.5213 4.82689C12.0686 4.29995 12.8007 4.00845 13.5606 4.01505C14.3219 4.02167 15.0502 4.32705 15.5886 4.86544C16.127 5.40382 16.4324 6.13212 16.439 6.89349C16.4456 7.65302 16.1543 8.38483 15.6278 8.93206L13.4905 11.0694C13.1961 11.3639 12.8418 11.5916 12.4517 11.7371C12.0616 11.8827 11.6447 11.9426 11.2294 11.9128C10.8141 11.8831 10.41 11.7644 10.0446 11.5647C9.67918 11.3651 9.36098 11.0892 9.11158 10.7558C8.89144 10.4615 8.4744 10.4014 8.1801 10.6215C7.88581 10.8416 7.82569 11.2587 8.04582 11.553C8.40954 12.0392 8.87359 12.4416 9.40647 12.7327C9.93936 13.0238 10.5286 13.197 11.1343 13.2404C11.74 13.2837 12.3479 13.1963 12.9169 12.9841C13.4858 12.7719 14.0025 12.4397 14.4317 12.0103L16.5732 9.86886L16.5813 9.86061C17.3527 9.06194 17.7795 7.99225 17.7699 6.88192C17.7602 5.7716 17.3149 4.70948 16.5297 3.92434C15.7446 3.13919 14.6825 2.69383 13.5721 2.68418ZM8.87834 7.64246C8.27266 7.59908 7.66473 7.68647 7.09579 7.8987C6.52689 8.11092 6.01028 8.44299 5.58099 8.87241L3.43945 11.014L3.43135 11.0222C2.65996 11.8209 2.23313 12.8906 2.24278 14.0009C2.25242 15.1112 2.69778 16.1733 3.48293 16.9585C4.26808 17.7436 5.33019 18.189 6.44051 18.1986C7.55084 18.2083 8.62053 17.7814 9.4192 17.0101L9.42745 17.002L10.6481 15.7813C10.908 15.5214 10.908 15.1001 10.6481 14.8402C10.3883 14.5803 9.96691 14.5803 9.70703 14.8402L8.49065 16.0566C7.94342 16.5831 7.21161 16.8744 6.45208 16.8678C5.69072 16.8611 4.96241 16.5558 4.42403 16.0174C3.88565 15.479 3.58026 14.7507 3.57364 13.9893C3.56704 13.2298 3.85831 12.498 4.38486 11.9507L6.52209 9.81351C6.81647 9.51903 7.17082 9.29121 7.56095 9.14568C7.95108 9.00015 8.36794 8.94023 8.78326 8.96997C9.19859 8.99972 9.60266 9.11844 9.96806 9.31807C10.3335 9.51771 10.6517 9.7936 10.9011 10.127C11.1212 10.4213 11.5382 10.4815 11.8325 10.2613C12.1268 10.0412 12.187 9.62414 11.9668 9.32984C11.6031 8.84359 11.1391 8.44125 10.6062 8.15011C10.0733 7.85896 9.48402 7.68583 8.87834 7.64246Z" fill="#202123"/>
<path fill-rule="evenodd" clip-rule="evenodd" d="M10.7626 4.04666L10.762 4.04726L10.7576 4.05154L10.7564 4.05278L9.52981 5.27222C9.3642 5.43687 9.36342 5.7046 9.52807 5.87021C9.69272 6.03582 9.96044 6.0366 10.1261 5.87195L11.353 4.65209C11.9461 4.08112 12.7394 3.76529 13.5627 3.77244C14.3877 3.77961 15.1768 4.11051 15.7602 4.69388C16.3435 5.27725 16.6744 6.0664 16.6816 6.89138C16.6888 7.71437 16.3732 8.50732 15.8026 9.10028L15.7994 9.10365L13.6621 11.2409C13.3431 11.56 12.9592 11.8068 12.5365 11.9644C12.1138 12.1221 11.6621 12.1871 11.2121 12.1548C10.762 12.1226 10.3242 11.994 9.92827 11.7776C9.53233 11.5613 9.18754 11.2624 8.9173 10.9011C8.77742 10.7141 8.51243 10.6759 8.32543 10.8158C8.13842 10.9557 8.10022 11.2206 8.2401 11.4076C8.58298 11.866 9.02044 12.2453 9.5228 12.5198C10.0252 12.7943 10.5807 12.9575 11.1516 12.9984C11.7226 13.0393 12.2957 12.9569 12.8321 12.7568C13.3684 12.5567 13.8555 12.2436 14.2602 11.8388L16.4002 9.6988L16.4016 9.69731L16.4068 9.69206L16.4075 9.69132C17.1343 8.93848 17.5364 7.93039 17.5273 6.88403C17.5182 5.83732 17.0983 4.83606 16.3582 4.09589C15.618 3.35573 14.6167 2.93588 13.57 2.92679C12.5236 2.9177 11.5155 3.31985 10.7626 4.04666ZM10.4249 3.69824C11.2693 2.88266 12.4003 2.43137 13.5742 2.44158C14.7482 2.45178 15.8711 2.92265 16.7013 3.75278C17.5314 4.58291 18.0023 5.70588 18.0125 6.87981C18.0227 8.05375 17.5714 9.18473 16.7558 10.0292L16.7544 10.0307L16.7448 10.0404L14.6033 12.1818C14.1495 12.6358 13.6031 12.9871 13.0017 13.2114C12.4001 13.4358 11.7574 13.5282 11.117 13.4824C10.4766 13.4365 9.85357 13.2534 9.29015 12.9456C8.72673 12.6378 8.2361 12.2124 7.85155 11.6983C7.55115 11.2967 7.63319 10.7276 8.03478 10.4272C8.43638 10.1268 9.00546 10.2089 9.30585 10.6105C9.53442 10.916 9.82604 11.1689 10.1609 11.3518C10.4958 11.5348 10.8661 11.6436 11.2467 11.6708C11.6273 11.6981 12.0094 11.6432 12.3669 11.5098C12.7244 11.3764 13.0491 11.1677 13.3189 10.8979L15.4546 8.76218C15.9361 8.26085 16.2024 7.5909 16.1964 6.89559C16.1903 6.19785 15.9105 5.53039 15.4171 5.03699C14.9237 4.54359 14.2562 4.26372 13.5585 4.25766C12.8627 4.25161 12.1924 4.51827 11.691 5.00036L10.4682 6.21606C10.1125 6.56965 9.53755 6.56798 9.18396 6.21232C8.83037 5.85666 8.83204 5.2817 9.1877 4.92811L10.4155 3.70743L10.4168 3.7062L10.4236 3.69946L10.4249 3.69824ZM8.86101 7.88445C8.29003 7.84356 7.71693 7.92594 7.18059 8.12602C6.64437 8.32604 6.15743 8.63902 5.75278 9.04373M7.01099 7.67138C7.61253 7.44699 8.25529 7.3546 8.89567 7.40046C9.53605 7.44632 10.1591 7.62937 10.7225 7.9372C11.2859 8.24502 11.7765 8.67041 12.1611 9.18452C12.4615 9.58612 12.3795 10.1552 11.9779 10.4556C11.5763 10.756 11.0072 10.674 10.7068 10.2724C10.4782 9.96678 10.1866 9.71394 9.85174 9.53099C9.51686 9.34803 9.14655 9.23923 8.76593 9.21197C8.38531 9.18471 8.00328 9.23963 7.64575 9.373C7.28821 9.50637 6.96355 9.71507 6.69377 9.98495L4.5581 12.1206C4.07655 12.622 3.81021 13.2919 3.81625 13.9872C3.82231 14.685 4.10218 15.3524 4.59559 15.8458C5.08899 16.3392 5.75644 16.6191 6.45419 16.6252C7.14949 16.6312 7.81944 16.3649 8.32077 15.8833L9.53548 14.6686C9.8901 14.314 10.4651 14.314 10.8197 14.6686C11.1743 15.0232 11.1743 15.5982 10.8197 15.9528L9.59752 17.175L9.58776 17.1846C8.74333 18.0002 7.61234 18.4514 6.43841 18.4412C5.26447 18.431 4.1415 17.9602 3.31137 17.13C2.48124 16.2999 2.01037 15.1769 2.00017 14.003C1.98997 12.8291 2.44126 11.6981 3.25683 10.8537L3.2583 10.8521L3.26789 10.8424L5.40912 8.70117C5.863 8.24715 6.4095 7.89576 7.01099 7.67138ZM8.86101 7.88445C9.43199 7.92534 9.9875 8.08856 10.4899 8.36302L8.86101 7.88445ZM5.75278 9.04373L3.61249 11.184L3.61101 11.1855L3.60586 11.1907L3.60513 11.1915C2.8784 11.9443 2.47629 12.9524 2.48538 13.9988C2.49448 15.0455 2.91432 16.0468 3.65449 16.7869C4.39465 17.5271 5.39591 17.9469 6.44262 17.956C7.48899 17.9651 8.49707 17.563 9.24991 16.8363L9.25066 16.8356L9.2559 16.8304L9.25739 16.8289L10.4766 15.6097C10.6417 15.4446 10.6417 15.1769 10.4766 15.0117C10.3114 14.8466 10.0437 14.8466 9.87859 15.0117L8.6589 16.2314C8.06594 16.802 7.27296 17.1175 6.44997 17.1104C5.625 17.1032 4.83584 16.7723 4.25247 16.1889C3.66911 15.6056 3.3382 14.8164 3.33104 13.9914C3.32388 13.1684 3.63949 12.3755 4.21003 11.7825L4.21327 11.7792L6.35054 9.64195" fill="#202123"/>
</svg>
