<svg width="20" height="21" viewBox="0 0 20 21" fill="none" xmlns="http://www.w3.org/2000/svg">
<path d="M19.6923 4.33494C18.9678 4.65679 18.1898 4.87402 17.3717 4.97064C18.2058 4.47094 18.8466 3.67956 19.1488 2.73679C18.3677 3.19894 17.5035 3.53618 16.5832 3.71648C15.8458 2.93187 14.7957 2.44141 13.6329 2.44141C11.4016 2.44141 9.59378 4.24941 9.59378 6.48018C9.59378 6.79648 9.62887 7.10541 9.69781 7.40079C6.34005 7.23218 3.3633 5.62418 1.37019 3.18048C1.02303 3.77741 0.823591 4.47094 0.823591 5.21125C0.823591 6.6131 1.537 7.84879 2.62035 8.57371C1.95864 8.55218 1.33572 8.37125 0.790967 8.06848C0.790352 8.0851 0.790352 8.10294 0.790352 8.11894C0.790352 10.0765 2.1827 11.7091 4.03116 12.0802C3.69262 12.1719 3.3356 12.2217 2.9669 12.2217C2.70591 12.2217 2.45354 12.1965 2.20732 12.1497C2.72068 13.7534 4.21336 14.9214 5.98057 14.9546C4.59869 16.0377 2.85671 16.6845 0.963933 16.6845C0.637698 16.6845 0.315771 16.6654 0 16.6279C1.78752 17.7725 3.91113 18.4414 6.19293 18.4414C13.6237 18.4414 17.6881 12.2869 17.6881 6.9491C17.6881 6.77433 17.6832 6.59956 17.6758 6.42602C18.4655 5.85679 19.15 5.14602 19.6923 4.33494Z" fill="#202123"/>
</svg>
