<?xml version="1.0" encoding="UTF-8"?>
<svg width="18px" height="18px" viewBox="0 0 18 18" version="1.1" xmlns="http://www.w3.org/2000/svg" xmlns:xlink="http://www.w3.org/1999/xlink">
    <title>share-facebook-dark</title>
    <g id="Page-1" stroke="none" stroke-width="1" fill="none" fill-rule="evenodd">
        <g id="share-facebook-dark" transform="translate(0.333010, 0.000000)" fill="#FDFDFD">
            <path d="M2.22044605e-16,8.66621 C2.22044605e-16,12.95111 3.12945,16.51391 7.22181,17.23601 L7.26913,17.19821 C7.25338,17.19511 7.23763,17.19201 7.22188,17.18891 L7.22188,11.07441 L5.05534,11.07441 L5.05534,8.66721 L7.22188,8.66721 L7.22188,6.74135 C7.22188,4.57481 8.6181,3.37118 10.59209,3.37118 C11.21799,3.37118 11.89199,3.46747 12.51789,3.56376 L12.51789,5.77845 L11.41049,5.77845 C10.35129,5.77845 10.11059,6.30805 10.11059,6.98208 L10.11059,8.66721 L12.42159,8.66721 L12.03639,11.07441 L10.11059,11.07441 L10.11059,17.18891 C10.09479,17.19211 10.07899,17.19521 10.06329,17.19821 L10.11049,17.23601 C14.20289,16.51391 17.33239,12.95111 17.33239,8.66621 C17.33239,3.89978 13.43259,2.22044605e-16 8.66617,2.22044605e-16 C3.89978,2.22044605e-16 2.22044605e-16,3.89978 2.22044605e-16,8.66621 Z" id="Path"></path>
        </g>
    </g>
</svg>