<svg width="20" height="21" viewBox="0 0 20 21" fill="none" xmlns="http://www.w3.org/2000/svg">
<path d="M18.3337 3.31924V17.5349C18.3337 17.8599 18.2045 18.1717 17.9747 18.4015C17.7449 18.6313 17.4332 18.7604 17.1082 18.7604H2.89248C2.56746 18.7604 2.25575 18.6313 2.02593 18.4015C1.79611 18.1717 1.66699 17.8599 1.66699 17.5349V3.31924C1.66699 2.99422 1.79611 2.68251 2.02593 2.45269C2.25575 2.22286 2.56746 2.09375 2.89248 2.09375H17.1082C17.4332 2.09375 17.7449 2.22286 17.9747 2.45269C18.2045 2.68251 18.3337 2.99422 18.3337 3.31924ZM6.56895 8.4663H4.11797V16.3094H6.56895V8.4663ZM6.78954 5.77022C6.79083 5.58482 6.75559 5.40099 6.68584 5.22921C6.61608 5.05743 6.51317 4.90108 6.38299 4.76907C6.2528 4.63706 6.09789 4.53199 5.9271 4.45986C5.75631 4.38772 5.57298 4.34993 5.38758 4.34865H5.34346C4.96644 4.34865 4.60486 4.49842 4.33826 4.76502C4.07167 5.03162 3.92189 5.3932 3.92189 5.77022C3.92189 6.14724 4.07167 6.50883 4.33826 6.77542C4.60486 7.04202 4.96644 7.19179 5.34346 7.19179C5.52887 7.19635 5.71336 7.16433 5.8864 7.09757C6.05943 7.0308 6.21761 6.9306 6.3519 6.80268C6.48619 6.67476 6.59396 6.52164 6.66906 6.35205C6.74415 6.18247 6.78509 5.99975 6.78954 5.81434V5.77022ZM15.8827 11.5447C15.8827 9.18689 14.3827 8.27022 12.8925 8.27022C12.4046 8.24579 11.9188 8.34971 11.4835 8.57162C11.0483 8.79353 10.6789 9.12568 10.4121 9.53493H10.3435V8.4663H8.03954V16.3094H10.4905V12.1379C10.4551 11.7106 10.5897 11.2867 10.865 10.9581C11.1404 10.6295 11.5343 10.4228 11.9611 10.383H12.0542C12.8337 10.383 13.4121 10.8732 13.4121 12.1085V16.3094H15.8631L15.8827 11.5447Z" fill="#202123"/>
</svg>
