<?xml version="1.0" encoding="UTF-8"?>
<svg width="18px" height="17px" viewBox="0 0 18 17" version="1.1" xmlns="http://www.w3.org/2000/svg" xmlns:xlink="http://www.w3.org/1999/xlink">
    <title>share-linkedin-dark</title>
    <g id="Page-1" stroke="none" stroke-width="1" fill="none" fill-rule="evenodd">
        <g id="share-linkedin-dark" transform="translate(0.666990, 0.318360)" fill="#FDFDFD" fill-rule="nonzero">
            <path d="M16.66671,1.22549 L16.66671,15.44115 C16.66671,15.76615 16.53751,16.07795 16.30771,16.30775 C16.07791,16.53755 15.76621,16.66665 15.44121,16.66665 L1.22549,16.66665 C0.90047,16.66665 0.58876,16.53755 0.35894,16.30775 C0.12912,16.07795 -2.22044605e-16,15.76615 -2.22044605e-16,15.44115 L-2.22044605e-16,1.22549 C-2.22044605e-16,0.90047 0.12912,0.58876 0.35894,0.35894 C0.58876,0.12911 0.90047,0 1.22549,0 L15.44121,0 C15.76621,0 16.07791,0.12911 16.30771,0.35894 C16.53751,0.58876 16.66671,0.90047 16.66671,1.22549 Z M4.90196,6.37255 L2.45098,6.37255 L2.45098,14.21565 L4.90196,14.21565 L4.90196,6.37255 Z M5.12255,3.67647 C5.12384,3.49107 5.0886,3.30724 5.01885,3.13546 C4.94909,2.96368 4.84618,2.80733 4.716,2.67532 C4.58581,2.54331 4.4309,2.43824 4.26011,2.36611 C4.08932,2.29397 3.90599,2.25618 3.72059,2.2549 L3.67647,2.2549 C3.29945,2.2549 2.93787,2.40467 2.67127,2.67127 C2.40468,2.93787 2.2549,3.29945 2.2549,3.67647 C2.2549,4.05349 2.40468,4.41508 2.67127,4.68167 C2.93787,4.94827 3.29945,5.09804 3.67647,5.09804 C3.86188,5.1026 4.04637,5.07058 4.21941,5.00382 C4.39244,4.93705 4.55062,4.83685 4.68491,4.70893 C4.8192,4.58101 4.92697,4.42789 5.00207,4.2583 C5.07716,4.08872 5.1181,3.906 5.12255,3.72059 L5.12255,3.67647 Z M14.21571,9.45095 C14.21571,7.09314 12.71571,6.17647 11.22551,6.17647 C10.73761,6.15204 10.25181,6.25596 9.81651,6.47787 C9.38131,6.69978 9.01191,7.03193 8.74511,7.44118 L8.67651,7.44118 L8.67651,6.37255 L6.37255,6.37255 L6.37255,14.21565 L8.82351,14.21565 L8.82351,10.04415 C8.78811,9.61685 8.92271,9.19295 9.19801,8.86435 C9.47341,8.53575 9.86731,8.32905 10.29411,8.28925 L10.38721,8.28925 C11.16671,8.28925 11.74511,8.77945 11.74511,10.01475 L11.74511,14.21565 L14.19611,14.21565 L14.21571,9.45095 Z" id="Shape"></path>
        </g>
    </g>
</svg>