<?xml version="1.0" encoding="UTF-8"?>
<svg width="16px" height="22px" viewBox="0 0 16 22" version="1.1" xmlns="http://www.w3.org/2000/svg" xmlns:xlink="http://www.w3.org/1999/xlink">
    <title>share-icon</title>
    <g id="Page-1" stroke="none" stroke-width="1" fill="none" fill-rule="evenodd">
        <g id="share-icon" fill="#FDFDFD" fill-rule="nonzero">
            <path d="M12,4 L10.58,5.42 L8.99,3.83 L8.99,15 L7.01,15 L7.01,3.83 L5.42,5.42 L4,4 L8,0 L12,4 Z M16,9 L16,20 C16,21.1 15.1,22 14,22 L2,22 C0.89,22 0,21.1 0,20 L0,9 C0,7.89 0.89,7 2,7 L5,7 L5,9 L2,9 L2,20 L14,20 L14,9 L11,9 L11,7 L14,7 C15.1,7 16,7.89 16,9 Z" id="Shape"></path>
        </g>
    </g>
</svg>