<?xml version="1.0" encoding="UTF-8"?>
<svg width="24px" height="29px" viewBox="0 0 24 29" version="1.1" xmlns="http://www.w3.org/2000/svg" xmlns:xlink="http://www.w3.org/1999/xlink">
    <title>svelte-logo</title>
    <g id="Page-1" stroke="none" stroke-width="1" fill="none" fill-rule="evenodd">
        <g id="svelte-logo" fill-rule="nonzero">
            <path d="M22.469064,3.83697531 C19.7909279,-0.0171228503 14.5013515,-1.15949981 10.6770247,1.29044824 L3.9618559,5.59481692 C2.12658636,6.75504813 0.862332732,8.63898524 0.47924891,10.7844501 C0.158937194,12.5714557 0.440583222,14.4148345 1.27959958,16.0227611 C0.704594232,16.8996665 0.312397186,17.8846981 0.126713493,18.918319 C-0.25969705,21.1047337 0.245993975,23.3554878 1.52964479,25.1625536 C4.2077809,29.0171696 9.49761474,30.1598055 13.3214266,27.7090807 L20.0381404,23.404712 C21.8729599,22.2443059 23.1366666,20.3603479 23.5192023,18.2150788 C23.8400439,16.4282176 23.5591311,14.5848021 22.7209118,12.9765089 C23.29553,12.099576 23.6874545,11.1146569 23.8730253,10.0812099 C24.2599257,7.89482052 23.754292,5.6439083 22.4703515,3.83697531" id="Path" fill="#FF3E00"></path>
            <path d="M9.54953522,25.8301958 C7.41597271,26.3860222 5.16297651,25.549001 3.90641172,23.7336925 C3.14580281,22.666431 2.84613905,21.3371242 3.0750553,20.0458 C3.11340717,19.8359481 3.16623385,19.6290144 3.23315513,19.4264884 L3.35775709,19.0449823 L3.69704998,19.2944873 C4.4799108,19.8713824 5.35531609,20.3100606 6.28552234,20.5916081 L6.53142721,20.6663833 L6.50884152,20.9125819 C6.47896953,21.262422 6.57363548,21.6115655 6.77606322,21.8981394 C7.154432,22.4454037 7.83340573,22.6977933 8.47633428,22.5301679 C8.61993718,22.491896 8.7568622,22.4318578 8.88236916,22.3521317 L15.5012452,18.1235178 C15.8287755,17.9168848 16.0545062,17.581734 16.1232399,17.2000186 C16.1918212,16.8107448 16.1014802,16.4101774 15.8725134,16.0883098 C15.494089,15.5411019 14.8152639,15.2885644 14.1722423,15.4557726 C14.0286486,15.4940708 13.8917275,15.5541073 13.7662074,15.6338088 L11.2404167,17.2475797 C10.8247496,17.5122478 10.3711911,17.7117438 9.89542618,17.8391686 C7.76185975,18.3950728 5.50881977,17.5580354 4.25230268,15.7426653 C3.49147142,14.6755014 3.19170269,13.3461347 3.42069249,12.0547727 C3.64813416,10.7875195 4.39775565,9.67493849 5.48563363,8.99000687 L12.105271,4.76215602 C12.5208356,4.49711528 12.974413,4.29735373 13.4502615,4.16980418 C15.5838241,3.61397781 17.8368203,4.450999 19.093385,6.26630749 C19.8540827,7.33353136 20.1538387,8.66284141 19.9249952,9.95420001 C19.8863176,10.1640046 19.8334104,10.3709218 19.7666416,10.5735116 L19.6420397,10.9550177 L19.3030006,10.7060214 C18.520184,10.1290537 17.6447658,9.69036905 16.7145282,9.4089006 L16.4683696,9.3341254 L16.491209,9.08792678 C16.5210057,8.73789264 16.4264523,8.38856249 16.2242411,8.10160628 C15.8458245,7.55440363 15.1668947,7.30203033 14.52397,7.4695778 C14.3803671,7.50784963 14.2434421,7.56788784 14.1179351,7.64761399 L7.49728268,11.8764822 C7.16980232,12.0829531 6.94420703,12.4180843 6.87579554,12.799727 C6.80688116,13.1890172 6.89705113,13.589729 7.12601454,13.9116902 C7.5044866,14.4588365 8.18326792,14.7113577 8.82628559,14.5442274 C8.96985575,14.5058617 9.10676696,14.4458295 9.23232047,14.3661912 L11.7578574,12.7531833 C12.1733394,12.4880473 12.6269451,12.288359 13.102848,12.1610858 C15.2363389,11.6052207 17.4892854,12.4422611 18.7457177,14.2575891 C19.5065489,15.3247529 19.8063177,16.6541196 19.5773279,17.9454816 C19.3503338,19.2127022 18.6014222,20.3255559 17.5141631,21.0112648 L10.8945258,25.237844 C10.4789856,25.5029307 10.025401,25.7026954 9.54953522,25.8301958" id="Path" fill="#FFFFFF"></path>
        </g>
    </g>
</svg>