<?xml version="1.0" encoding="UTF-8"?>
<svg width="47px" height="47px" viewBox="0 0 47 47" version="1.1" xmlns="http://www.w3.org/2000/svg" xmlns:xlink="http://www.w3.org/1999/xlink">
    <title>twitter copy</title>
    <g id="Page-1" stroke="none" stroke-width="1" fill="none" fill-rule="evenodd">
        <g id="twitter-copy">
            <rect id="Rectangle" fill="#F8F9FA" x="0" y="0" width="46.5" height="46.5" rx="23.25"></rect>
            <path d="M23.0189,20.0823 C23.0368,20.3847 22.7762,20.6334 22.4756,20.5961 C20.3715,20.3213 18.5333,19.3891 16.9726,17.8236 L16.6345,17.4794 C16.4393,17.2807 16.1033,17.357 16.013,17.6205 C15.5968,18.8992 15.8627,20.2496 16.7298,21.1578 C17.1922,21.6597 17.0882,21.7314 16.2905,21.4327 C15.9345,21.31 15.7264,21.4909 15.8139,21.8571 C15.9002,22.2178 16.0407,22.6625 16.1633,22.9026 C16.4639,23.5001 17.0766,24.0857 17.7472,24.4323 C17.8897,24.5014 17.8425,24.7155 17.6841,24.7183 L17.6431,24.7191 C16.9957,24.7191 16.9726,24.731 17.0419,24.982 C17.2732,25.7588 18.1865,26.5834 19.2038,26.9419 L19.2296,26.9509 C19.5061,27.0477 19.5461,27.4222 19.2963,27.5753 C18.3714,28.125 17.2847,28.4357 16.198,28.4596 C15.6778,28.4715 15.25,28.5194 15.25,28.5552 C15.25,28.6747 16.6604,29.3439 17.4813,29.6069 C19.9437,30.3836 22.8686,30.049 25.0652,28.7225 C26.6259,27.7784 28.1866,25.9022 28.915,24.0857 C29.308,23.1177 29.7011,21.349 29.7011,20.5005 C29.7011,19.9508 29.7358,19.8791 30.3832,19.2218 C30.7647,18.8394 31.1231,18.4211 31.1925,18.3016 C31.3081,18.0746 31.2965,18.0746 30.7069,18.2777 C29.7242,18.6363 29.5855,18.5884 30.0711,18.0507 C30.4294,17.6683 30.8572,16.9751 30.8572,16.772 C30.8572,16.7361 30.6838,16.7959 30.4872,16.9034 C30.2791,17.0229 29.8167,17.2022 29.4699,17.3097 C29.0767,17.4377 28.6462,17.3741 28.3068,17.1378 L28.2791,17.1185 C27.967,16.9034 27.5277,16.6644 27.2964,16.5927 C26.7068,16.4254 25.8051,16.4493 25.2733,16.6405 C23.8282,17.1783 22.9149,18.5645 23.0189,20.0823 Z" id="Path" fill="#111111"></path>
        </g>
    </g>
</svg>